<svg width="639" height="1190" viewBox="0 0 639 1190" fill="none" xmlns="http://www.w3.org/2000/svg">
<circle cx="415.5" cy="31.5" r="31.5" fill="#269899"/>
<circle cx="607.5" cy="31.5" r="31.5" fill="#269899"/>
<circle cx="223.5" cy="31.5" r="31.5" fill="#269899"/>
<circle cx="31.5" cy="31.5" r="31.5" fill="#269899"/>
<circle cx="415.5" cy="192.5" r="31.5" fill="#269899"/>
<circle cx="607.5" cy="192.5" r="31.5" fill="#269899"/>
<circle cx="223.5" cy="192.5" r="31.5" fill="#269899"/>
<circle cx="31.5" cy="192.5" r="31.5" fill="#269899"/>
<circle cx="415.5" cy="353.5" r="31.5" fill="#269899"/>
<circle cx="607.5" cy="353.5" r="31.5" fill="#269899"/>
<circle cx="223.5" cy="353.5" r="31.5" fill="#269899"/>
<circle cx="31.5" cy="353.5" r="31.5" fill="#269899"/>
<circle cx="415.5" cy="514.5" r="31.5" fill="#269899"/>
<circle cx="607.5" cy="514.5" r="31.5" fill="#269899"/>
<circle cx="223.5" cy="514.5" r="31.5" fill="#269899"/>
<circle cx="31.5" cy="514.5" r="31.5" fill="#269899"/>
<circle cx="415.5" cy="675.5" r="31.5" fill="#269899"/>
<circle cx="607.5" cy="675.5" r="31.5" fill="#269899"/>
<circle cx="223.5" cy="675.5" r="31.5" fill="#269899"/>
<circle cx="31.5" cy="675.5" r="31.5" fill="#269899"/>
<circle cx="415.5" cy="836.5" r="31.5" fill="#269899"/>
<circle cx="607.5" cy="836.5" r="31.5" fill="#269899"/>
<circle cx="223.5" cy="836.5" r="31.5" fill="#269899"/>
<circle cx="31.5" cy="836.5" r="31.5" fill="#269899"/>
<circle cx="415.5" cy="997.5" r="31.5" fill="#269899"/>
<circle cx="607.5" cy="997.5" r="31.5" fill="#269899"/>
<circle cx="223.5" cy="997.5" r="31.5" fill="#269899"/>
<circle cx="31.5" cy="997.5" r="31.5" fill="#269899"/>
<circle cx="415.5" cy="1158.5" r="31.5" fill="#269899"/>
<circle cx="607.5" cy="1158.5" r="31.5" fill="#269899"/>
<circle cx="223.5" cy="1158.5" r="31.5" fill="#269899"/>
<circle cx="31.5" cy="1158.5" r="31.5" fill="#269899"/>
</svg>
